<svg xmlns="http://www.w3.org/2000/svg" viewBox="0 0 100 100" fill="none">
  <!-- Cat head (face + ears as single path) -->
  <path d="M50,84 C30,84 15,74 15,60 C15,48 18,42 22,38 L18,14 L38,32 C43,28 47,26 50,26 C53,26 57,28 62,32 L82,14 L78,38 C82,42 85,48 85,60 C85,74 70,84 50,84 Z"
        fill="#F5E4A5" stroke="#4A72A8" stroke-width="3.5" stroke-linejoin="round" stroke-linecap="round"/>

  <!-- Eyes -->
  <circle cx="37" cy="53" r="4" fill="#4A72A8"/>
  <circle cx="63" cy="53" r="4" fill="#4A72A8"/>

  <!-- Nose (X shape) -->
  <line x1="46" y1="64" x2="54" y2="72" stroke="#4A72A8" stroke-width="3" stroke-linecap="round"/>
  <line x1="54" y1="64" x2="46" y2="72" stroke="#4A72A8" stroke-width="3" stroke-linecap="round"/>

  <!-- Left whiskers -->
  <line x1="12" y1="57" x2="32" y2="59" stroke="#4A72A8" stroke-width="2.5" stroke-linecap="round"/>
  <line x1="11" y1="63" x2="31" y2="63" stroke="#4A72A8" stroke-width="2.5" stroke-linecap="round"/>
  <line x1="12" y1="69" x2="32" y2="67" stroke="#4A72A8" stroke-width="2.5" stroke-linecap="round"/>

  <!-- Right whiskers -->
  <line x1="88" y1="57" x2="68" y2="59" stroke="#4A72A8" stroke-width="2.5" stroke-linecap="round"/>
  <line x1="89" y1="63" x2="69" y2="63" stroke="#4A72A8" stroke-width="2.5" stroke-linecap="round"/>
  <line x1="88" y1="69" x2="68" y2="67" stroke="#4A72A8" stroke-width="2.5" stroke-linecap="round"/>
</svg>
